<?xml version="1.0" standalone="no"?>
<!DOCTYPE svg PUBLIC "-//W3C//DTD SVG 20010904//EN"
 "http://www.w3.org/TR/2001/REC-SVG-20010904/DTD/svg10.dtd">
<svg version="1.0" xmlns="http://www.w3.org/2000/svg"
 width="500.000000pt" height="500.000000pt" viewBox="0 0 500.000000 500.000000"
 preserveAspectRatio="xMidYMid meet">
<metadata>
Created by potrace 1.14, written by Peter Selinger 2001-2017
</metadata>
<g transform="translate(0.000000,500.000000) scale(0.100000,-0.100000)"
fill="#000000" stroke="none">
<path d="M2285 4660 c-115 -48 -219 -92 -230 -97 -11 -5 -272 -114 -581 -242
l-560 -234 -134 -321 c-73 -177 -141 -339 -151 -361 -9 -22 -74 -177 -144
-345 -69 -168 -132 -318 -140 -335 -7 -16 -31 -74 -54 -128 l-40 -97 65 -158
c36 -86 75 -182 88 -212 13 -30 61 -145 106 -255 45 -110 88 -213 95 -230 7
-16 66 -158 130 -315 65 -157 130 -314 145 -350 l26 -65 797 -332 797 -332
557 231 c307 127 664 274 793 328 l235 97 332 796 332 796 -180 433 c-99 238
-186 447 -194 463 -7 17 -29 71 -50 120 -20 50 -44 108 -54 130 -10 22 -55
130 -101 241 l-83 201 -176 73 c-97 40 -454 190 -795 332 -340 142 -619 258
-620 257 0 0 -95 -40 -211 -89z m165 -398 l0 -357 -59 -12 c-112 -21 -237
-102 -301 -195 -18 -27 -35 -48 -37 -48 -19 0 -973 405 -962 408 8 3 57 22
109 44 135 56 132 54 165 68 78 32 903 372 925 381 14 6 54 24 90 39 36 15 66
28 68 29 1 1 2 -160 2 -357z m266 287 c82 -33 163 -67 179 -74 17 -8 197 -82
400 -166 204 -83 413 -169 465 -191 52 -22 107 -44 123 -50 26 -10 37 -28 17
-28 -5 0 -221 -88 -479 -195 -258 -107 -471 -195 -473 -195 -2 0 -21 24 -42
53 -67 91 -183 165 -301 192 l-50 12 -3 351 c-1 197 2 352 7 352 4 0 75 -27
157 -61z m-1346 -728 c63 -26 233 -97 378 -157 207 -85 261 -112 256 -124 -15
-39 -25 -126 -19 -171 4 -27 5 -49 3 -49 -2 0 -120 -29 -263 -64 l-259 -65
-34 40 c-40 46 -97 78 -147 82 -20 2 -39 7 -44 13 -5 5 -30 77 -56 159 -25 83
-49 157 -52 165 -3 8 -7 20 -9 25 -1 6 -21 68 -43 138 -23 70 -41 132 -41 136
0 5 48 -11 108 -36 59 -25 159 -66 222 -92z m2427 -286 l-152 -410 -55 -2
c-105 -4 -170 -28 -231 -87 l-34 -33 -170 94 c-186 102 -179 94 -156 178 14
52 15 193 2 229 -21 53 -42 41 349 204 19 8 161 67 315 132 154 64 281 114
282 111 1 -3 -66 -190 -150 -416z m321 245 c28 -69 128 -313 221 -542 246
-603 262 -641 258 -645 -2 -2 -114 27 -248 63 -134 36 -248 67 -254 68 -12 3
-79 22 -152 42 l-53 15 0 50 c0 70 -44 163 -103 217 l-47 42 158 415 c86 228
160 411 163 407 3 -4 29 -63 57 -132z m-3069 -184 c50 -159 93 -292 96 -295 2
-4 -16 -27 -41 -51 -61 -60 -79 -125 -62 -222 2 -12 -81 -69 -302 -210 -168
-107 -311 -197 -317 -201 -8 -5 -4 12 8 40 11 26 90 219 176 428 85 209 163
398 172 420 10 22 51 122 92 222 41 99 77 176 80 170 4 -7 48 -142 98 -301z
m996 -430 c39 -82 106 -152 212 -221 2 -1 -98 -245 -131 -320 -7 -16 -44 -104
-82 -195 l-68 -165 -100 0 c-56 0 -113 -3 -127 -7 -25 -7 -28 -3 -92 130 -36
75 -106 221 -156 325 -50 103 -91 190 -91 193 0 3 13 22 29 42 17 20 36 62 43
92 l14 55 245 62 c134 33 252 62 261 62 12 1 26 -17 43 -53z m1058 -161 l164
-89 -1 -96 c-1 -110 18 -162 85 -233 22 -22 39 -44 39 -48 0 -5 -22 -57 -50
-115 -27 -58 -50 -108 -50 -110 0 -2 -24 -54 -54 -116 l-53 -113 -44 3 c-42 3
-45 6 -63 50 -11 26 -88 214 -173 419 -84 204 -153 375 -153 380 1 4 21 21 46
36 24 16 63 51 86 78 23 27 45 48 50 47 4 -2 81 -43 171 -93z m-1914 -134 c19
-6 54 -11 78 -11 l44 0 71 -151 c40 -83 111 -230 158 -327 86 -175 86 -177 66
-192 -25 -18 -62 -55 -96 -97 l-25 -31 -300 124 c-165 68 -356 147 -425 175
-69 28 -138 57 -155 64 -16 7 -60 25 -98 40 -37 15 -69 31 -72 35 -3 5 16 21
42 36 27 15 82 49 123 76 41 26 169 108 285 182 l210 133 30 -22 c16 -12 45
-27 64 -34z m1316 15 c39 0 88 3 110 7 l41 8 143 -348 c79 -191 159 -382 177
-424 l32 -76 -33 -34 c-18 -19 -38 -51 -45 -71 l-13 -36 -329 0 c-185 0 -328
4 -328 9 0 5 0 11 0 14 -1 20 -48 128 -72 162 -21 32 -101 107 -126 119 -1 0
4 14 12 30 7 16 71 170 142 342 l128 313 45 -8 c25 -4 78 -7 116 -7z m1515
-251 c8 -2 42 -10 75 -19 33 -9 69 -19 80 -21 11 -3 100 -27 199 -53 l179 -48
-224 -93 c-123 -51 -398 -165 -612 -253 l-387 -160 -25 26 c-14 15 -25 30 -25
33 0 3 22 51 49 107 26 56 72 153 101 216 66 142 64 140 100 130 96 -27 249
39 308 134 l27 43 70 -19 c39 -11 77 -21 85 -23z m-3325 -350 c176 -73 522
-217 702 -292 58 -24 61 -27 52 -50 -25 -67 -1 -209 51 -294 l28 -45 -278
-282 c-153 -155 -280 -282 -283 -282 -2 0 -10 15 -17 33 -7 17 -21 50 -30 72
-10 22 -48 114 -85 205 -37 91 -82 201 -100 245 -57 137 -296 718 -316 767
l-18 47 47 -20 c26 -12 137 -58 247 -104z m3820 -71 c-42 -104 -85 -208 -96
-231 -10 -24 -19 -46 -19 -49 0 -3 -6 -20 -14 -37 -8 -18 -51 -122 -96 -232
-45 -110 -120 -296 -168 -413 l-86 -213 -106 105 c-58 58 -216 215 -352 349
l-247 244 14 39 c8 21 14 57 15 80 l0 40 98 41 c53 22 322 133 597 247 275
113 507 210 515 215 8 5 16 7 18 6 2 -2 -31 -88 -73 -191z m-1608 -403 c6 -1
17 -16 23 -35 6 -19 27 -50 46 -69 l35 -34 -221 -534 c-122 -294 -227 -547
-235 -564 -7 -16 -21 -51 -31 -77 -11 -27 -21 -48 -24 -48 -3 0 -54 121 -114
268 -60 147 -117 285 -127 307 -9 22 -43 103 -74 180 -32 77 -73 176 -91 220
l-33 80 27 19 c81 59 152 168 167 255 l6 36 317 -1 c174 -1 322 -2 329 -3z
m706 -499 l348 -348 -228 -94 c-125 -51 -280 -114 -343 -140 -354 -146 -589
-243 -615 -254 -50 -22 -88 -37 -136 -56 l-47 -19 53 127 c319 771 447 1078
454 1090 6 10 27 16 59 18 28 1 59 7 69 13 10 6 23 11 28 11 6 0 167 -157 358
-348z m-1959 192 c86 -48 192 -65 278 -45 l36 8 60 -146 c34 -80 126 -306 207
-501 80 -195 152 -369 160 -387 14 -32 14 -32 -8 -24 -12 5 -281 116 -597 246
-316 131 -614 254 -663 273 -79 32 -86 37 -72 51 9 9 134 136 278 283 144 147
265 267 268 267 4 1 27 -11 53 -25z"/>
</g>
</svg>
